<?xml version="1.0"?>
<svg xmlns="http://www.w3.org/2000/svg" xmlns:xlink="http://www.w3.org/1999/xlink" version="1.1" id="Layer_1" x="0px" y="0px" viewBox="0 0 512 512" style="enable-background:new 0 0 512 512;" xml:space="preserve" width="250px" height="250px" class=""><g><circle style="fill:#273B7A;" cx="256" cy="256" r="256" data-original="#273B7A" class=""/><path style="fill:#121149;" d="M306.045,507.095c96.434-19.113,173.378-92.375,197.806-186.785L309.544,126.005L182.718,242.483  l25.941,46.559l-50.424,70.246L306.045,507.095z" data-original="#121149" class=""/><path style="fill:#FFFFFF;" d="M361.794,227.102c-3.17,0.465-6.456,0.581-9.814,0.307c-20.575-1.676-37.245-18.322-38.943-38.896  c-0.681-8.247,0.986-16.053,4.406-22.823c8.868-17.558,0.814-39.081-17.91-45.109c-15.089-4.858-31.28-7.261-48.107-6.732  c-76.674,2.412-138.138,66.372-137.647,143.082c0.505,78.615,64.793,142.095,143.715,141.283  c75.524-0.776,137.871-61.478,140.631-136.954c0.019-0.503,0.034-1.005,0.047-1.505C398.688,240.04,381.307,224.239,361.794,227.102  z M268.067,274.101c-15.71,0-28.444-12.734-28.444-28.444s12.734-28.444,28.444-28.444s28.444,12.734,28.444,28.444  S283.776,274.101,268.067,274.101z" data-original="#FFFFFF" class=""/><path style="fill:#D0D1D3;" d="M361.794,227.102c-3.17,0.465-6.456,0.581-9.814,0.307c-20.575-1.676-37.245-18.322-38.943-38.896  c-0.681-8.247,0.986-16.053,4.406-22.823c8.868-17.558,0.814-39.081-17.91-45.109c-13.715-4.417-28.348-6.777-43.536-6.777v106.122  c3.667-1.724,7.747-2.715,12.067-2.715c15.71,0,28.444,12.734,28.444,28.444c0,15.71-12.734,28.444-28.444,28.444  c-4.32,0-8.399-0.991-12.067-2.715v126.805c0.5,0,0.993,0.028,1.495,0.022c75.524-0.776,137.871-61.478,140.631-136.954  c0.019-0.503,0.034-1.005,0.047-1.505C398.688,240.04,381.307,224.239,361.794,227.102z" data-original="#D0D1D3"/><circle style="fill:#FF7F4F;" cx="243.778" cy="173.528" r="20.704" data-original="#FF7F4F"/><circle style="fill:#EAA22F;" cx="178.941" cy="207.748" r="20.704" data-original="#EAA22F"/><circle style="fill:#8BC180;" cx="167.236" cy="282.479" r="20.704" data-original="#8BC180"/><circle style="fill:#71E2EF;" cx="208.662" cy="341.919" r="20.704" data-original="#71E2EF"/><circle style="fill:#02B2B2;" cx="286.099" cy="341.919" r="20.704" data-original="#02B2B2"/><circle style="fill:#59595B;" cx="333.576" cy="282.479" r="20.704" data-original="#59595B"/></g> </svg>
