<?xml version="1.0" encoding="iso-8859-1"?>
<!-- Generator: Adobe Illustrator 19.0.0, SVG Export Plug-In . SVG Version: 6.00 Build 0)  -->
<svg version="1.1" id="Capa_1" xmlns="http://www.w3.org/2000/svg" xmlns:xlink="http://www.w3.org/1999/xlink" x="0px" y="0px"  width="250px" height="250px"
	 viewBox="0 0 512 512" style="enable-background:new 0 0 512 512;" xml:space="preserve">
<path style="fill:#303C42;" d="M512,256c0-14.715-10.036-27.012-23.583-30.734c-5.514-41.862-22.061-80.206-46.68-112.135
	c6.896-12.203,5.667-27.768-4.716-38.151c-10.366-10.384-25.951-11.612-38.148-4.715c-31.93-24.62-70.275-41.167-112.138-46.681
	C283.012,10.036,270.715,0,256,0s-27.012,10.036-30.734,23.583c-41.863,5.514-80.208,22.061-112.138,46.681
	c-12.198-6.897-27.783-5.669-38.148,4.715c-10.383,10.383-11.612,25.948-4.716,38.151c-24.618,31.93-41.165,70.273-46.68,112.135
	C10.036,228.988,0,241.285,0,256c0,14.698,10.013,26.984,23.539,30.721c5.393,41.115,21.409,79.758,46.585,112.359
	c-6.751,12.172-5.466,27.618,4.855,37.94c5.949,5.958,13.723,8.875,21.54,9.143c-1.698,4.199-3.284,8.081-5.02,12.388l-3.708,9.146
	c-6.771,16.292,0.958,35.052,17.229,41.833c4.021,1.677,8.167,2.458,12.271,2.458c12.542,0,24.479-7.417,29.604-19.698
	c0.772-1.859,3.874-11.151,8.303-24.857c22.147,10.556,45.754,17.906,70.111,21.125C229.081,502.034,241.339,512,256,512
	c14.668,0,26.928-9.974,30.695-23.456c27.661-3.697,54.353-12.768,79.19-26.038c5.307,16.507,9.039,27.728,9.906,29.816
	c3.292,7.885,9.458,14.021,17.354,17.271c3.938,1.615,8.063,2.406,12.188,2.406c4.167,0,8.354-0.813,12.313-2.469
	c16.271-6.781,24-25.542,17.229-41.833v-0.01l-3.792-9.333c-2.008-4.98-3.848-9.487-5.805-14.323
	c4.359-1.505,8.431-3.699,11.742-7.01c6.042-6.042,9.375-14.083,9.375-22.625c0-5.742-1.621-11.195-4.438-16.026
	c24.958-32.539,40.986-71.008,46.419-111.624C501.945,283.035,512,270.728,512,256z"/>
<g>
	<path style="fill:#FFCA28;" d="M127.208,484.083c-2.271,5.438-8.5,8.021-13.979,5.76c-5.417-2.26-8-8.521-5.729-13.958l3.771-9.354
		c33.375-82.75,59.563-145.323,78.313-187.01C168.333,357.427,130.25,476.625,127.208,484.083z"/>
	<path style="fill:#FFCA28;" d="M409.438,489.844c-2.667,1.104-5.542,1.104-8.167,0.021c-2.646-1.083-4.708-3.135-5.792-5.74
		c-3.063-7.49-41.146-126.677-62.375-204.583c18.708,41.656,44.875,104.146,78.208,186.792l3.854,9.552c0,0,0,0,0,0.01
		C417.438,481.333,414.854,487.583,409.438,489.844z"/>
</g>
<path style="fill:#FFF8E1;" d="M408.974,403.967c-34.139-83.383-59.194-141.159-74.432-171.488
	c6.917-8.875,8.771-20.781,4.313-31.469c-5.75-13.802-25.25-37.458-44.292-29.521c-18.375,7.646-20.604,40.146-14.792,54.156
	c4.021,9.615,12.438,16.406,22.333,18.635c10.563,46.625,38.867,139.599,57.22,197.638c-60.651,33.635-136.091,35.23-197.568,5.03
	c18.25-57.525,47.918-154.625,58.806-202.678c9.896-2.229,18.333-9.031,22.333-18.646c5.813-14,3.563-46.49-14.792-54.135
	c-19.042-7.917-38.542,15.719-44.313,29.531c-4.438,10.677-2.563,22.583,4.333,31.448c-15.715,31.288-41.796,91.52-77.561,179.108
	C67.404,371.255,42.667,315.473,42.667,256c0-117.635,95.708-213.333,213.333-213.333S469.333,138.365,469.333,256
	C469.333,311.279,447.376,364.28,408.974,403.967z"/>
<path style="opacity:0.2;fill:#FFFFFF;enable-background:new    ;" d="M56,269.333C56,151.698,151.708,56,269.333,56
	c55.424,0,105.819,21.426,143.792,56.204C374.094,69.591,318.201,42.667,256,42.667C138.375,42.667,42.667,138.365,42.667,256
	c0,59.473,24.737,115.255,67.897,155.577c0.044-0.109,0.085-0.206,0.129-0.315C75.797,372.435,56,322.393,56,269.333z"/>
<path style="fill:#FFF8E1;" d="M304.066,252.357c-0.638-2.651-1.415-5.661-1.962-8.076c-2.663-0.6-5.188-1.583-7.579-2.81
	C296.867,245.882,300.112,249.559,304.066,252.357z"/>
<g>
	<path style="fill:#FFCA28;" d="M315.271,221.688c-0.896,0.635-1.646,1.375-2.292,2.198c-0.667-0.135-1.375-0.208-2.104-0.208
		c-0.25,0-0.521,0.01-0.792,0.031c-4.604,0.271-8.875-2.115-10.604-6.26c-3.042-7.313-0.313-23.958,2.938-26.188h0.021
		c3.313,0,13,9.042,16.729,17.969C321.313,214.375,318.75,219.198,315.271,221.688z"/>
	<path style="fill:#FFCA28;" d="M203.479,209.24c3.75-8.948,13.458-18,16.313-18.104c3.708,2.344,6.438,19,3.396,26.292
		c-1.729,4.156-6,6.531-10.625,6.281c-1.063-0.125-2-0.01-2.875,0.177c-0.646-0.823-1.396-1.563-2.271-2.188
		C203.917,219.198,201.354,214.375,203.479,209.24z"/>
</g>
<linearGradient id="SVGID_1_" gradientUnits="userSpaceOnUse" x1="-38.8022" y1="635.1299" x2="-29.3766" y2="625.7043" gradientTransform="matrix(21.3333 0 0 -21.3333 996.3334 13791.667)">
	<stop  offset="0" style="stop-color:#000000;stop-opacity:0.1"/>
	<stop  offset="1" style="stop-color:#000000;stop-opacity:0"/>
</linearGradient>
<path style="fill:url(#SVGID_1_);" d="M300.424,243.69c-9.135-2.599-16.871-8.999-20.654-18.044
	c-0.566-1.367-0.988-3.033-1.395-4.711l-43.566-44.964l-0.056,0.083c12.107,11.797,13.15,37.508,8.142,49.57
	c-4,9.615-12.438,16.417-22.333,18.646c-10.888,48.053-40.556,145.154-58.806,202.678c61.477,30.201,136.917,28.605,197.568-5.03
	c-18.173-57.471-46.051-149.055-56.85-196.113L300.424,243.69z M338.854,201.01c4.458,10.688,2.604,22.594-4.313,31.469
	c15.238,30.329,40.293,88.105,74.432,171.488c22.917-23.684,39.816-52.167,49.849-82.988L338.854,201.01z"/>
<linearGradient id="SVGID_2_" gradientUnits="userSpaceOnUse" x1="-45.5094" y1="638.2003" x2="-24.0799" y2="628.2071" gradientTransform="matrix(21.3333 0 0 -21.3333 996.3334 13791.667)">
	<stop  offset="0" style="stop-color:#FFFFFF;stop-opacity:0.2"/>
	<stop  offset="1" style="stop-color:#FFFFFF;stop-opacity:0"/>
</linearGradient>
<path style="fill:url(#SVGID_2_);" d="M512,256c0-14.715-10.036-27.012-23.583-30.734c-5.514-41.862-22.061-80.206-46.68-112.135
	c6.896-12.203,5.667-27.768-4.716-38.151c-10.366-10.384-25.951-11.612-38.148-4.715c-31.93-24.62-70.275-41.167-112.138-46.681
	C283.012,10.036,270.715,0,256,0s-27.012,10.036-30.734,23.583c-41.863,5.514-80.208,22.061-112.138,46.681
	c-12.198-6.897-27.783-5.669-38.148,4.715c-10.383,10.383-11.612,25.948-4.716,38.151c-24.618,31.93-41.165,70.273-46.68,112.135
	C10.036,228.988,0,241.285,0,256c0,14.698,10.013,26.984,23.539,30.721c5.393,41.115,21.409,79.758,46.585,112.359
	c-6.751,12.172-5.466,27.618,4.855,37.94c5.949,5.958,13.723,8.875,21.54,9.143c-1.698,4.199-3.284,8.081-5.02,12.388l-3.708,9.146
	c-6.771,16.292,0.958,35.052,17.229,41.833c4.021,1.677,8.167,2.458,12.271,2.458c12.542,0,24.479-7.417,29.604-19.698
	c0.772-1.859,3.874-11.151,8.303-24.857c22.147,10.556,45.754,17.906,70.111,21.125C229.081,502.034,241.339,512,256,512
	c14.668,0,26.928-9.974,30.695-23.456c27.661-3.697,54.353-12.768,79.19-26.038c5.307,16.507,9.039,27.728,9.906,29.816
	c3.292,7.885,9.458,14.021,17.354,17.271c3.938,1.615,8.063,2.406,12.188,2.406c4.167,0,8.354-0.813,12.313-2.469
	c16.271-6.781,24-25.542,17.229-41.833v-0.01l-3.792-9.333c-2.008-4.98-3.848-9.487-5.805-14.323
	c4.359-1.505,8.431-3.699,11.742-7.01c6.042-6.042,9.375-14.083,9.375-22.625c0-5.742-1.621-11.195-4.438-16.026
	c24.958-32.539,40.986-71.008,46.419-111.624C501.945,283.035,512,270.728,512,256z"/>
<g>
</g>
<g>
</g>
<g>
</g>
<g>
</g>
<g>
</g>
<g>
</g>
<g>
</g>
<g>
</g>
<g>
</g>
<g>
</g>
<g>
</g>
<g>
</g>
<g>
</g>
<g>
</g>
<g>
</g>
</svg>
